<svg width="30" height="33" viewBox="0 0 30 33" fill="none" xmlns="http://www.w3.org/2000/svg">
<path d="M15.998 8.2627C17.4714 8.2627 18.6722 8.46452 19.6006 8.86816C20.5492 9.27181 21.3766 9.79655 22.083 10.4424V13.4395C21.639 13.1165 21.1344 12.7633 20.5693 12.3799C20.0244 11.9964 19.3786 11.6634 18.6318 11.3809C17.9053 11.0781 17.0273 10.9268 15.998 10.9268C14.4844 10.9268 13.1322 11.2699 11.9414 11.9561C10.7507 12.6423 9.81217 13.5908 9.12598 14.8018C8.43978 15.9925 8.09668 17.3447 8.09668 18.8584C8.09668 20.3721 8.43978 21.7243 9.12598 22.915C9.81217 24.1058 10.7507 25.0544 11.9414 25.7607C13.1322 26.4469 14.4844 26.79 15.998 26.79C17.5521 26.79 18.874 26.5378 19.9639 26.0332C21.0739 25.5085 21.9821 24.9736 22.6885 24.4287V27.1533C21.9821 27.779 21.0537 28.3239 19.9033 28.7881C18.7731 29.2321 17.4714 29.4541 15.998 29.4541C14.4642 29.4541 13.0514 29.1816 11.7598 28.6367C10.4681 28.0716 9.33789 27.3047 8.36914 26.3359C7.40039 25.3672 6.64355 24.2471 6.09863 22.9756C5.57389 21.6839 5.31152 20.3115 5.31152 18.8584C5.31152 17.4053 5.57389 16.043 6.09863 14.7715C6.64355 13.4798 7.40039 12.3496 8.36914 11.3809C9.33789 10.4121 10.4681 9.65527 11.7598 9.11035C13.0514 8.54525 14.4642 8.2627 15.998 8.2627Z" fill="#28272E"/>
<circle cx="16" cy="19" r="13.5" stroke="#28272E"/>
</svg>
