<svg width="198" height="67" viewBox="0 0 198 67" fill="none" xmlns="http://www.w3.org/2000/svg">
<path fill-rule="evenodd" clip-rule="evenodd" d="M22.9263 0H6.25263H0V6.28125V60.7188V67L6.25263 67L16.6737 67H22.9263V60.7188L22.9263 10.4688H22.9263H16.6737H10.421V16.75H16.6737V60.7188H6.25263V6.28125H22.9263V0ZM33.3474 0H27.0947V67H33.3474V0ZM83.3684 0H72.9474H66.6947V6.28125V60.7188V67L72.9474 67H83.3684L89.6211 67V60.7188V6.28125V0H83.3684ZM83.3684 6.28125H72.9474V60.7188H83.3684V6.28125ZM164.653 18.8438L164.653 17.7969H154.232V67H147.979V16.75V12.5625V6.28125V0H154.232H164.653H170.905V6.28125V10.4688L168.126 14.6563L170.905 18.8438V67H164.653V19.8906V18.8438ZM154.232 11.5156V6.28125H164.653V9.42188V10.4688L164.653 11.5156H154.232ZM114.632 0H135.474H141.726V6.28125L141.726 67H135.474V61H114.632V67H108.379V6.28125V0H114.632ZM135.474 56H114.632V6.28125H135.474V56ZM189.663 0H198V6.28125H189.663V67H183.411V6.28125H175.074V0H183.411H189.663ZM43.7684 60.7188H62.5263V67L43.7684 67L37.5158 67V60.7188V0H43.7684V60.7188Z" fill="black"/>
</svg>
